# xmcd
#
# Track frame offsets:
#	150
#	13603
#	27356
#	40928
#	55234
#	68012
#	82469
#	96908
#	110491
#	124225
#	138022
#	153753
#	170075
#	184130
#	199148
#	211220
#	224529
#	238772
#	253510
#	265458
#	279516
#	293701
#	307399
#	320190
#
# Disc length: 4454 seconds
#
# Revision: 0
# Processed by: cddbd v1.5.2PL0 Copyright (c) Steve Scherf et al.
# Submitted via: dBpowerAMP V4.0
#
DISCID=78116418
DTITLE=Various Artist - The Story Of The Pre-War Blues disc3 Blues from Mississippi
DYEAR=1900
DGENRE=Blues
TTITLE0=Mississippi Sheiks - Jail Bird Love Song
TTITLE1=Henry Slim - Be True Be True Blues
TTITLE2=Bobby Grant - Lomesome Atlanta Blues
TTITLE3=Charley Patton - Mississippi Bo Weavil Blues
TTITLE4=Kid Bailey - Mississippi Bottom Blues
TTITLE5=Garfield Akers - Dough Roller Blues
TTITLE6=Joe Calicott - Fare Three Well Blues
TTITLE7=Skip James - Devil Got My Woman
TTITLE8=Bo Carter - Old Devil
TTITLE9=Charlie McCoy - Last Time Blues
TTITLE10=Ishman Bracey - Leavin' Town Blues
TTITLE11=Tommy Johnson - Maggie Campbell blues
TTITLE12=Johnnie Temple - Lead Pencil Blues
TTITLE13=Blind Joe Reynolds - Married Man Blues
TTITLE14=Bukka White - Parchman Farm Blues
TTITLE15=Willie Brown - Future Blues
TTITLE16=Son House - My Black Mama Part1
TTITLE17=Son House - My Black Mama Part2
TTITLE18=Robert Johnson - Cross Road Blues(take1)
TTITLE19=Mr.Freddie - 4A Highway
TTITLE20=Big Joe Williams - Stepfather Blues
TTITLE21=Robert Petway - Don't Go Down Baby
TTITLE22=Tommy McClennan - Cotton Patch Blues
TTITLE23=Robert Lockwood - Little Boy Blue
EXTD=
EXTT0=
EXTT1=
EXTT2=
EXTT3=
EXTT4=
EXTT5=
EXTT6=
EXTT7=
EXTT8=
EXTT9=
EXTT10=
EXTT11=
EXTT12=
EXTT13=
EXTT14=
EXTT15=
EXTT16=
EXTT17=
EXTT18=
EXTT19=
EXTT20=
EXTT21=
EXTT22=
EXTT23=
PLAYORDER=
